<svg height="100" viewBox="0 0 100 100" width="100" xmlns="http://www.w3.org/2000/svg" xmlns:xlink="http://www.w3.org/1999/xlink"><clipPath id="a"><path d="m0 0h100v100h-100z"/></clipPath><g clip-path="url(#a)"><g fill="#040405" transform="translate(-298.889 -390.068)"><path d="m375.426 451.69h-53.566a8.223 8.223 0 0 1 -8.214-8.217v-23.84h3.043v23.84a5.179 5.179 0 0 0 5.171 5.174h53.565a5.182 5.182 0 0 0 5.177-5.174v-23.84h3.043v23.84a8.226 8.226 0 0 1 -8.219 8.217z" transform="translate(0 16.485)"/><path d="m348.646 446.058-35-18.666v-7.609a8.223 8.223 0 0 1 8.214-8.217h53.565a8.226 8.226 0 0 1 8.22 8.217v7.609zm-31.957-20.489 31.957 17.04 31.957-17.04v-5.786a5.182 5.182 0 0 0 -5.177-5.174h-53.566a5.179 5.179 0 0 0 -5.171 5.174z"/></g></g></svg>