<svg height="100" viewBox="0 0 100 100" width="100" xmlns="http://www.w3.org/2000/svg" xmlns:xlink="http://www.w3.org/1999/xlink"><clipPath id="a"><path d="m0 0h100v100h-100z"/></clipPath><g clip-path="url(#a)"><path d="m68.75 0h-62.5a6.248 6.248 0 0 0 -6.25 6.25v62.5a6.248 6.248 0 0 0 6.25 6.25h34.375v-28.125h-9.375v-12.5h9.375v-8.084c0-9.687 5.916-14.963 14.559-14.963a80.177 80.177 0 0 1 8.734.447v10.125h-5.994c-4.7 0-5.609 2.234-5.609 5.509v6.962h13.876l-3.125 12.5h-10.75v28.129h16.434a6.248 6.248 0 0 0 6.25-6.25v-62.5a6.248 6.248 0 0 0 -6.25-6.25z" transform="translate(13 13)"/></g></svg>