<svg xmlns="http://www.w3.org/2000/svg" xmlns:xlink="http://www.w3.org/1999/xlink" width="100" height="100" viewBox="0 0 100 100"><defs><clipPath id="b"><rect width="100" height="100"/></clipPath></defs><g id="a" clip-path="url(#b)"><g transform="translate(15.329 15)"><path d="M36,7.3c9.332,0,10.45.035,14.14.2a14.992,14.992,0,0,1,10.522,3.824,14.992,14.992,0,0,1,3.824,10.522c.168,3.7.21,4.815.21,14.147s-.035,10.45-.2,14.14a14.992,14.992,0,0,1-3.824,10.522,14.99,14.99,0,0,1-10.522,3.824c-3.691.168-4.8.2-14.14.2s-10.45-.035-14.14-.2A14.992,14.992,0,0,1,11.34,60.658,14.99,14.99,0,0,1,7.516,50.136C7.341,46.445,7.3,45.339,7.3,36s.035-10.45.2-14.14a14.992,14.992,0,0,1,3.824-10.522A14.992,14.992,0,0,1,21.855,7.509C25.546,7.341,26.663,7.3,36,7.3M36,1c-9.5,0-10.695.04-14.43.21a20.937,20.937,0,0,0-14.7,5.662,20.93,20.93,0,0,0-5.662,14.7C1.04,25.3,1,26.493,1,36s.04,10.695.21,14.43a20.937,20.937,0,0,0,5.662,14.7,20.93,20.93,0,0,0,14.7,5.662C25.3,70.956,26.5,71,36,71s10.695-.04,14.43-.21a20.936,20.936,0,0,0,14.7-5.662,20.93,20.93,0,0,0,5.662-14.7C70.96,46.692,71,45.5,71,36s-.04-10.695-.21-14.43a20.937,20.937,0,0,0-5.662-14.7,20.93,20.93,0,0,0-14.7-5.662C46.69,1.04,45.5,1,36,1Z" transform="translate(-1 -1)"/><path d="M22,8.3A13.7,13.7,0,1,0,35.708,22,13.7,13.7,0,0,0,22,8.3Zm0,22.6A8.9,8.9,0,1,1,30.9,22,8.9,8.9,0,0,1,22,30.9Z" transform="translate(12.99 12.99)"/><ellipse cx="5.25" cy="5.25" rx="5.25" ry="5.25" transform="translate(47.789 11.702)"/></g></g></svg>