<svg xmlns="http://www.w3.org/2000/svg" width="20.118" height="22" viewBox="0 0 20.118 22"><g transform="translate(-2.985 -1)"><path d="M16.174,19.557a.434.434,0,0,0,.335-.143c.287-.287,6.839-6.983,6.839-11.239A7.174,7.174,0,0,0,9,8.174c0,4.257,6.552,10.952,6.839,11.239A.714.714,0,0,0,16.174,19.557ZM13.783,8.174a2.391,2.391,0,1,1,2.391,2.391A2.368,2.368,0,0,1,13.783,8.174Z" transform="translate(-3.139 0)"/><path d="M20.161,33.287a.46.46,0,0,0-.43-.287H17.34c-.239.335-.526.67-.765.957h2.87l2.391,4.783H4.235l2.391-4.783H9.5c-.239-.287-.526-.622-.765-.957H6.34a.46.46,0,0,0-.43.287L3.04,39.026a.558.558,0,0,0,0,.478.712.712,0,0,0,.43.191H22.6a.571.571,0,0,0,.43-.239.434.434,0,0,0,0-.478Z" transform="translate(0 -16.696)"/></g></svg>