<svg height="100" viewBox="0 0 100 100" width="100" xmlns="http://www.w3.org/2000/svg" xmlns:xlink="http://www.w3.org/1999/xlink"><clipPath id="a"><path d="m0 0h100v100h-100z"/></clipPath><g clip-path="url(#a)" fill="#040405"><path d="m227.593 468.115a1.373 1.373 0 0 0 1.066-.455c.913-.913 21.763-22.222 21.763-35.765a22.829 22.829 0 0 0 -45.659 0c0 13.547 20.85 34.852 21.763 35.765a2.271 2.271 0 0 0 1.067.455zm-7.609-36.224a7.609 7.609 0 1 1 7.609 7.609 7.535 7.535 0 0 1 -7.609-7.462z" transform="translate(-177.615 -394.068)"/><path d="m256.544 425.283a1.464 1.464 0 0 0 -1.368-.913h-7.609c-.76 1.066-1.674 2.132-2.434 3.045h9.133l7.609 15.221h-56.011l7.609-15.221h9.146c-.761-.913-1.674-1.979-2.434-3.045h-7.621a1.464 1.464 0 0 0 -1.368.913l-9.133 18.263a1.769 1.769 0 0 0 0 1.521 2.258 2.258 0 0 0 1.368.608h60.876a1.807 1.807 0 0 0 1.368-.761 1.377 1.377 0 0 0 0-1.521z" transform="translate(-183.889 -360.675)"/></g></svg>