<svg height="100" viewBox="0 0 100 100" width="100" xmlns="http://www.w3.org/2000/svg" xmlns:xlink="http://www.w3.org/1999/xlink"><clipPath id="a"><path d="m0 0h100v100h-100z"/></clipPath><g clip-path="url(#a)" fill="#040405"><path d="m313.579 477.946h-.63a56.366 56.366 0 0 1 -56.3-56.3v-.63l10.651-10.657 17.369 17.369-9.13 9.13 22.2 22.2 9.13-9.13 17.369 17.369zm-53.888-55.677a53.325 53.325 0 0 0 52.631 52.631l7.606-7.606-13.066-13.066-9.13 9.13-26.5-26.5 9.13-9.13-13.062-13.066z" transform="translate(-241.889 -392.448)"/><path d="m300.08 440h-3.043v-1.522a25.9 25.9 0 0 0 -25.87-25.87h-1.522v-3.043h1.522a28.947 28.947 0 0 1 28.913 28.913z" transform="translate(-215.324 -394.068)"/><path d="m287.906 431.827h-3.044v-1.522a13.712 13.712 0 0 0 -13.7-13.7h-1.522v-3.043h1.522a16.759 16.759 0 0 1 16.739 16.739z" transform="translate(-215.324 -385.894)"/></g></svg>