<svg height="100" viewBox="0 0 100 100" width="100" xmlns="http://www.w3.org/2000/svg" xmlns:xlink="http://www.w3.org/1999/xlink"><clipPath id="a"><path d="m0 0h100v100h-100z"/></clipPath><g clip-path="url(#a)"><path d="m70 9.008a26.268 26.268 0 0 1 -8.167 2.333 15.527 15.527 0 0 0 6.417-7.874 26.479 26.479 0 0 1 -9.042 3.5 14.119 14.119 0 0 0 -10.5-4.667 14.315 14.315 0 0 0 -14.291 14.292 10.936 10.936 0 0 0 .292 3.208 40.272 40.272 0 0 1 -29.751-15.167 13.164 13.164 0 0 0 -2.042 7.292 14.644 14.644 0 0 0 6.417 11.958 11.759 11.759 0 0 1 -6.417-1.75v.292a14.146 14.146 0 0 0 11.375 14 14.777 14.777 0 0 1 -3.792.583 8.075 8.075 0 0 1 -2.625-.292 13.827 13.827 0 0 0 13.417 9.917 29.177 29.177 0 0 1 -17.791 6.125 14.2 14.2 0 0 1 -3.5-.291 40.828 40.828 0 0 0 21.875 6.417c26.542 0 40.833-21.875 40.833-40.833v-1.751a34.559 34.559 0 0 0 7.292-7.292z" transform="translate(14.984 19.139)"/></g></svg>