<svg xmlns="http://www.w3.org/2000/svg" xmlns:xlink="http://www.w3.org/1999/xlink" width="1280.237" height="4" viewBox="0 0 1280.237 4"><defs><style>.a{fill:none;}.b{opacity:0.097;clip-path:url(#a);}.c{fill:#f2f2f2;}</style><clipPath id="a"><rect class="a" width="1280.237" height="4"/></clipPath></defs><g class="b"><g transform="translate(-506.254 -406.343)"><g transform="translate(506.254 406.343)"><path class="c" d="M509.9,408.171a1.825,1.825,0,1,1-1.822-1.828,1.825,1.825,0,0,1,1.822,1.828" transform="translate(-506.254 -406.343)"/><path class="c" d="M534.047,408.217a1.826,1.826,0,1,1-1.822-1.829,1.825,1.825,0,0,1,1.822,1.829" transform="translate(-515.793 -406.361)"/><path class="c" d="M561.839,408.27a1.826,1.826,0,0,1-1.829,1.822l-3.65-.007a1.825,1.825,0,0,1,.007-3.65l3.65.007a1.825,1.825,0,0,1,1.822,1.828" transform="translate(-525.332 -406.379)"/><path class="c" d="M594.4,408.331a1.826,1.826,0,1,1-1.822-1.829,1.826,1.826,0,0,1,1.822,1.829" transform="translate(-539.641 -406.406)"/><path class="c" d="M610.122,408.361a1.827,1.827,0,0,1-1.83,1.822l-3.65-.007a1.825,1.825,0,1,1,.007-3.65l3.65.007a1.826,1.826,0,0,1,1.823,1.829" transform="translate(-544.411 -406.415)"/><path class="c" d="M631.879,408.4a1.826,1.826,0,0,1-1.829,1.822l-7.3-.014a1.825,1.825,0,0,1,.007-3.65l7.3.014a1.825,1.825,0,0,1,1.823,1.829" transform="translate(-551.565 -406.428)"/><path class="c" d="M658.4,408.452a1.825,1.825,0,0,1-1.829,1.822l-3.65-.007a1.825,1.825,0,1,1,.007-3.65l3.65.007a1.825,1.825,0,0,1,1.822,1.829" transform="translate(-563.488 -406.451)"/><path class="c" d="M678.9,408.491a1.825,1.825,0,1,1-1.822-1.829,1.825,1.825,0,0,1,1.822,1.829" transform="translate(-573.028 -406.469)"/><path class="c" d="M690.967,408.514a1.825,1.825,0,1,1-1.821-1.829,1.826,1.826,0,0,1,1.821,1.829" transform="translate(-577.798 -406.478)"/><path class="c" d="M706.689,408.543a1.826,1.826,0,0,1-1.829,1.822l-3.651-.007a1.825,1.825,0,0,1,.007-3.65l3.65.007a1.825,1.825,0,0,1,1.822,1.829" transform="translate(-582.567 -406.487)"/><path class="c" d="M721.144,408.571a1.826,1.826,0,1,1-1.822-1.829,1.826,1.826,0,0,1,1.822,1.829" transform="translate(-589.721 -406.501)"/><path class="c" d="M736.864,408.6a1.825,1.825,0,0,1-1.828,1.822l-3.651-.007a1.825,1.825,0,1,1,.007-3.65l3.651.007a1.824,1.824,0,0,1,1.821,1.829" transform="translate(-594.49 -406.509)"/><path class="c" d="M775.361,420.743a1.825,1.825,0,1,1,1.821,1.828,1.826,1.826,0,0,1-1.821-1.828" transform="translate(-486.774 -418.571)"/><path class="c" d="M751.219,420.7a1.825,1.825,0,1,1,1.822,1.828,1.826,1.826,0,0,1-1.822-1.828" transform="translate(-477.234 -418.554)"/><path class="c" d="M721.041,420.641a1.827,1.827,0,0,1,1.83-1.822l3.65.007a1.825,1.825,0,0,1-.007,3.65l-3.651-.007a1.826,1.826,0,0,1-1.822-1.829" transform="translate(-465.31 -418.531)"/><path class="c" d="M690.865,420.584a1.825,1.825,0,1,1,1.823,1.829,1.826,1.826,0,0,1-1.823-1.829" transform="translate(-453.387 -418.508)"/><path class="c" d="M672.758,420.55a1.826,1.826,0,0,1,1.829-1.822l3.651.007a1.825,1.825,0,1,1-.007,3.65l-3.651-.007a1.826,1.826,0,0,1-1.822-1.829" transform="translate(-446.232 -418.495)"/><path class="c" d="M648.618,420.5a1.826,1.826,0,0,1,1.829-1.822l7.3.014a1.825,1.825,0,1,1-.007,3.65l-7.3-.014a1.825,1.825,0,0,1-1.821-1.828" transform="translate(-436.694 -418.477)"/><path class="c" d="M624.477,420.459a1.825,1.825,0,0,1,1.828-1.822l3.652.007a1.825,1.825,0,0,1-.007,3.65l-3.652-.007a1.824,1.824,0,0,1-1.821-1.828" transform="translate(-427.155 -418.459)"/><path class="c" d="M606.369,420.425a1.825,1.825,0,1,1,1.822,1.829,1.826,1.826,0,0,1-1.822-1.829" transform="translate(-420 -418.446)"/><path class="c" d="M594.3,420.4a1.826,1.826,0,1,1,1.822,1.828A1.827,1.827,0,0,1,594.3,420.4" transform="translate(-415.23 -418.437)"/><path class="c" d="M576.193,420.367a1.826,1.826,0,0,1,1.829-1.822l3.65.007a1.825,1.825,0,1,1-.007,3.65l-3.65-.007a1.824,1.824,0,0,1-1.822-1.828" transform="translate(-408.076 -418.423)"/><path class="c" d="M564.123,420.345a1.825,1.825,0,1,1,1.821,1.829,1.825,1.825,0,0,1-1.821-1.829" transform="translate(-403.307 -418.414)"/><path class="c" d="M546.015,420.311a1.827,1.827,0,0,1,1.83-1.822l3.65.007a1.825,1.825,0,1,1-.007,3.65l-3.65-.007a1.827,1.827,0,0,1-1.823-1.829" transform="translate(-396.152 -418.401)"/></g></g><g transform="translate(-200.254 -406.343)"><g transform="translate(506.254 406.343)"><path class="c" d="M509.9,408.171a1.825,1.825,0,1,1-1.822-1.828,1.825,1.825,0,0,1,1.822,1.828" transform="translate(-506.254 -406.343)"/><path class="c" d="M534.047,408.217a1.826,1.826,0,1,1-1.822-1.829,1.825,1.825,0,0,1,1.822,1.829" transform="translate(-515.793 -406.361)"/><path class="c" d="M561.839,408.27a1.826,1.826,0,0,1-1.829,1.822l-3.65-.007a1.825,1.825,0,0,1,.007-3.65l3.65.007a1.825,1.825,0,0,1,1.822,1.828" transform="translate(-525.332 -406.379)"/><path class="c" d="M594.4,408.331a1.826,1.826,0,1,1-1.822-1.829,1.826,1.826,0,0,1,1.822,1.829" transform="translate(-539.641 -406.406)"/><path class="c" d="M610.122,408.361a1.827,1.827,0,0,1-1.83,1.822l-3.65-.007a1.825,1.825,0,1,1,.007-3.65l3.65.007a1.826,1.826,0,0,1,1.823,1.829" transform="translate(-544.411 -406.415)"/><path class="c" d="M631.879,408.4a1.826,1.826,0,0,1-1.829,1.822l-7.3-.014a1.825,1.825,0,0,1,.007-3.65l7.3.014a1.825,1.825,0,0,1,1.823,1.829" transform="translate(-551.565 -406.428)"/><path class="c" d="M658.4,408.452a1.825,1.825,0,0,1-1.829,1.822l-3.65-.007a1.825,1.825,0,1,1,.007-3.65l3.65.007a1.825,1.825,0,0,1,1.822,1.829" transform="translate(-563.488 -406.451)"/><path class="c" d="M678.9,408.491a1.825,1.825,0,1,1-1.822-1.829,1.825,1.825,0,0,1,1.822,1.829" transform="translate(-573.028 -406.469)"/><path class="c" d="M690.967,408.514a1.825,1.825,0,1,1-1.821-1.829,1.826,1.826,0,0,1,1.821,1.829" transform="translate(-577.798 -406.478)"/><path class="c" d="M706.689,408.543a1.826,1.826,0,0,1-1.829,1.822l-3.651-.007a1.825,1.825,0,0,1,.007-3.65l3.65.007a1.825,1.825,0,0,1,1.822,1.829" transform="translate(-582.567 -406.487)"/><path class="c" d="M721.144,408.571a1.826,1.826,0,1,1-1.822-1.829,1.826,1.826,0,0,1,1.822,1.829" transform="translate(-589.721 -406.501)"/><path class="c" d="M736.864,408.6a1.825,1.825,0,0,1-1.828,1.822l-3.651-.007a1.825,1.825,0,1,1,.007-3.65l3.651.007a1.824,1.824,0,0,1,1.821,1.829" transform="translate(-594.49 -406.509)"/><path class="c" d="M775.361,420.743a1.825,1.825,0,1,1,1.821,1.828,1.826,1.826,0,0,1-1.821-1.828" transform="translate(-486.774 -418.571)"/><path class="c" d="M751.219,420.7a1.825,1.825,0,1,1,1.822,1.828,1.826,1.826,0,0,1-1.822-1.828" transform="translate(-477.234 -418.554)"/><path class="c" d="M721.041,420.641a1.827,1.827,0,0,1,1.83-1.822l3.65.007a1.825,1.825,0,0,1-.007,3.65l-3.651-.007a1.826,1.826,0,0,1-1.822-1.829" transform="translate(-465.31 -418.531)"/><path class="c" d="M690.865,420.584a1.825,1.825,0,1,1,1.823,1.829,1.826,1.826,0,0,1-1.823-1.829" transform="translate(-453.387 -418.508)"/><path class="c" d="M672.758,420.55a1.826,1.826,0,0,1,1.829-1.822l3.651.007a1.825,1.825,0,1,1-.007,3.65l-3.651-.007a1.826,1.826,0,0,1-1.822-1.829" transform="translate(-446.232 -418.495)"/><path class="c" d="M648.618,420.5a1.826,1.826,0,0,1,1.829-1.822l7.3.014a1.825,1.825,0,1,1-.007,3.65l-7.3-.014a1.825,1.825,0,0,1-1.821-1.828" transform="translate(-436.694 -418.477)"/><path class="c" d="M624.477,420.459a1.825,1.825,0,0,1,1.828-1.822l3.652.007a1.825,1.825,0,0,1-.007,3.65l-3.652-.007a1.824,1.824,0,0,1-1.821-1.828" transform="translate(-427.155 -418.459)"/><path class="c" d="M606.369,420.425a1.825,1.825,0,1,1,1.822,1.829,1.826,1.826,0,0,1-1.822-1.829" transform="translate(-420 -418.446)"/><path class="c" d="M594.3,420.4a1.826,1.826,0,1,1,1.822,1.828A1.827,1.827,0,0,1,594.3,420.4" transform="translate(-415.23 -418.437)"/><path class="c" d="M576.193,420.367a1.826,1.826,0,0,1,1.829-1.822l3.65.007a1.825,1.825,0,1,1-.007,3.65l-3.65-.007a1.824,1.824,0,0,1-1.822-1.828" transform="translate(-408.076 -418.423)"/><path class="c" d="M564.123,420.345a1.825,1.825,0,1,1,1.821,1.829,1.825,1.825,0,0,1-1.821-1.829" transform="translate(-403.307 -418.414)"/><path class="c" d="M546.015,420.311a1.827,1.827,0,0,1,1.83-1.822l3.65.007a1.825,1.825,0,1,1-.007,3.65l-3.65-.007a1.827,1.827,0,0,1-1.823-1.829" transform="translate(-396.152 -418.401)"/></g></g><g transform="translate(105.746 -406.343)"><g transform="translate(506.254 406.343)"><path class="c" d="M509.9,408.171a1.825,1.825,0,1,1-1.822-1.828,1.825,1.825,0,0,1,1.822,1.828" transform="translate(-506.254 -406.343)"/><path class="c" d="M534.047,408.217a1.826,1.826,0,1,1-1.822-1.829,1.825,1.825,0,0,1,1.822,1.829" transform="translate(-515.793 -406.361)"/><path class="c" d="M561.839,408.27a1.826,1.826,0,0,1-1.829,1.822l-3.65-.007a1.825,1.825,0,0,1,.007-3.65l3.65.007a1.825,1.825,0,0,1,1.822,1.828" transform="translate(-525.332 -406.379)"/><path class="c" d="M594.4,408.331a1.826,1.826,0,1,1-1.822-1.829,1.826,1.826,0,0,1,1.822,1.829" transform="translate(-539.641 -406.406)"/><path class="c" d="M610.122,408.361a1.827,1.827,0,0,1-1.83,1.822l-3.65-.007a1.825,1.825,0,1,1,.007-3.65l3.65.007a1.826,1.826,0,0,1,1.823,1.829" transform="translate(-544.411 -406.415)"/><path class="c" d="M631.879,408.4a1.826,1.826,0,0,1-1.829,1.822l-7.3-.014a1.825,1.825,0,0,1,.007-3.65l7.3.014a1.825,1.825,0,0,1,1.823,1.829" transform="translate(-551.565 -406.428)"/><path class="c" d="M658.4,408.452a1.825,1.825,0,0,1-1.829,1.822l-3.65-.007a1.825,1.825,0,1,1,.007-3.65l3.65.007a1.825,1.825,0,0,1,1.822,1.829" transform="translate(-563.488 -406.451)"/><path class="c" d="M678.9,408.491a1.825,1.825,0,1,1-1.822-1.829,1.825,1.825,0,0,1,1.822,1.829" transform="translate(-573.028 -406.469)"/><path class="c" d="M690.967,408.514a1.825,1.825,0,1,1-1.821-1.829,1.826,1.826,0,0,1,1.821,1.829" transform="translate(-577.798 -406.478)"/><path class="c" d="M706.689,408.543a1.826,1.826,0,0,1-1.829,1.822l-3.651-.007a1.825,1.825,0,0,1,.007-3.65l3.65.007a1.825,1.825,0,0,1,1.822,1.829" transform="translate(-582.567 -406.487)"/><path class="c" d="M721.144,408.571a1.826,1.826,0,1,1-1.822-1.829,1.826,1.826,0,0,1,1.822,1.829" transform="translate(-589.721 -406.501)"/><path class="c" d="M736.864,408.6a1.825,1.825,0,0,1-1.828,1.822l-3.651-.007a1.825,1.825,0,1,1,.007-3.65l3.651.007a1.824,1.824,0,0,1,1.821,1.829" transform="translate(-594.49 -406.509)"/><path class="c" d="M775.361,420.743a1.825,1.825,0,1,1,1.821,1.828,1.826,1.826,0,0,1-1.821-1.828" transform="translate(-486.774 -418.571)"/><path class="c" d="M751.219,420.7a1.825,1.825,0,1,1,1.822,1.828,1.826,1.826,0,0,1-1.822-1.828" transform="translate(-477.234 -418.554)"/><path class="c" d="M721.041,420.641a1.827,1.827,0,0,1,1.83-1.822l3.65.007a1.825,1.825,0,0,1-.007,3.65l-3.651-.007a1.826,1.826,0,0,1-1.822-1.829" transform="translate(-465.31 -418.531)"/><path class="c" d="M690.865,420.584a1.825,1.825,0,1,1,1.823,1.829,1.826,1.826,0,0,1-1.823-1.829" transform="translate(-453.387 -418.508)"/><path class="c" d="M672.758,420.55a1.826,1.826,0,0,1,1.829-1.822l3.651.007a1.825,1.825,0,1,1-.007,3.65l-3.651-.007a1.826,1.826,0,0,1-1.822-1.829" transform="translate(-446.232 -418.495)"/><path class="c" d="M648.618,420.5a1.826,1.826,0,0,1,1.829-1.822l7.3.014a1.825,1.825,0,1,1-.007,3.65l-7.3-.014a1.825,1.825,0,0,1-1.821-1.828" transform="translate(-436.694 -418.477)"/><path class="c" d="M624.477,420.459a1.825,1.825,0,0,1,1.828-1.822l3.652.007a1.825,1.825,0,0,1-.007,3.65l-3.652-.007a1.824,1.824,0,0,1-1.821-1.828" transform="translate(-427.155 -418.459)"/><path class="c" d="M606.369,420.425a1.825,1.825,0,1,1,1.822,1.829,1.826,1.826,0,0,1-1.822-1.829" transform="translate(-420 -418.446)"/><path class="c" d="M594.3,420.4a1.826,1.826,0,1,1,1.822,1.828A1.827,1.827,0,0,1,594.3,420.4" transform="translate(-415.23 -418.437)"/><path class="c" d="M576.193,420.367a1.826,1.826,0,0,1,1.829-1.822l3.65.007a1.825,1.825,0,1,1-.007,3.65l-3.65-.007a1.824,1.824,0,0,1-1.822-1.828" transform="translate(-408.076 -418.423)"/><path class="c" d="M564.123,420.345a1.825,1.825,0,1,1,1.821,1.829,1.825,1.825,0,0,1-1.821-1.829" transform="translate(-403.307 -418.414)"/><path class="c" d="M546.015,420.311a1.827,1.827,0,0,1,1.83-1.822l3.65.007a1.825,1.825,0,1,1-.007,3.65l-3.65-.007a1.827,1.827,0,0,1-1.823-1.829" transform="translate(-396.152 -418.401)"/></g></g><g transform="translate(411.746 -406.343)"><g transform="translate(506.254 406.343)"><path class="c" d="M509.9,408.171a1.825,1.825,0,1,1-1.822-1.828,1.825,1.825,0,0,1,1.822,1.828" transform="translate(-506.254 -406.343)"/><path class="c" d="M534.047,408.217a1.826,1.826,0,1,1-1.822-1.829,1.825,1.825,0,0,1,1.822,1.829" transform="translate(-515.793 -406.361)"/><path class="c" d="M561.839,408.27a1.826,1.826,0,0,1-1.829,1.822l-3.65-.007a1.825,1.825,0,0,1,.007-3.65l3.65.007a1.825,1.825,0,0,1,1.822,1.828" transform="translate(-525.332 -406.379)"/><path class="c" d="M594.4,408.331a1.826,1.826,0,1,1-1.822-1.829,1.826,1.826,0,0,1,1.822,1.829" transform="translate(-539.641 -406.406)"/><path class="c" d="M610.122,408.361a1.827,1.827,0,0,1-1.83,1.822l-3.65-.007a1.825,1.825,0,1,1,.007-3.65l3.65.007a1.826,1.826,0,0,1,1.823,1.829" transform="translate(-544.411 -406.415)"/><path class="c" d="M631.879,408.4a1.826,1.826,0,0,1-1.829,1.822l-7.3-.014a1.825,1.825,0,0,1,.007-3.65l7.3.014a1.825,1.825,0,0,1,1.823,1.829" transform="translate(-551.565 -406.428)"/><path class="c" d="M658.4,408.452a1.825,1.825,0,0,1-1.829,1.822l-3.65-.007a1.825,1.825,0,1,1,.007-3.65l3.65.007a1.825,1.825,0,0,1,1.822,1.829" transform="translate(-563.488 -406.451)"/><path class="c" d="M678.9,408.491a1.825,1.825,0,1,1-1.822-1.829,1.825,1.825,0,0,1,1.822,1.829" transform="translate(-573.028 -406.469)"/><path class="c" d="M690.967,408.514a1.825,1.825,0,1,1-1.821-1.829,1.826,1.826,0,0,1,1.821,1.829" transform="translate(-577.798 -406.478)"/><path class="c" d="M706.689,408.543a1.826,1.826,0,0,1-1.829,1.822l-3.651-.007a1.825,1.825,0,0,1,.007-3.65l3.65.007a1.825,1.825,0,0,1,1.822,1.829" transform="translate(-582.567 -406.487)"/><path class="c" d="M721.144,408.571a1.826,1.826,0,1,1-1.822-1.829,1.826,1.826,0,0,1,1.822,1.829" transform="translate(-589.721 -406.501)"/><path class="c" d="M736.864,408.6a1.825,1.825,0,0,1-1.828,1.822l-3.651-.007a1.825,1.825,0,1,1,.007-3.65l3.651.007a1.824,1.824,0,0,1,1.821,1.829" transform="translate(-594.49 -406.509)"/><path class="c" d="M775.361,420.743a1.825,1.825,0,1,1,1.821,1.828,1.826,1.826,0,0,1-1.821-1.828" transform="translate(-486.774 -418.571)"/><path class="c" d="M751.219,420.7a1.825,1.825,0,1,1,1.822,1.828,1.826,1.826,0,0,1-1.822-1.828" transform="translate(-477.234 -418.554)"/><path class="c" d="M721.041,420.641a1.827,1.827,0,0,1,1.83-1.822l3.65.007a1.825,1.825,0,0,1-.007,3.65l-3.651-.007a1.826,1.826,0,0,1-1.822-1.829" transform="translate(-465.31 -418.531)"/><path class="c" d="M690.865,420.584a1.825,1.825,0,1,1,1.823,1.829,1.826,1.826,0,0,1-1.823-1.829" transform="translate(-453.387 -418.508)"/><path class="c" d="M672.758,420.55a1.826,1.826,0,0,1,1.829-1.822l3.651.007a1.825,1.825,0,1,1-.007,3.65l-3.651-.007a1.826,1.826,0,0,1-1.822-1.829" transform="translate(-446.232 -418.495)"/><path class="c" d="M648.618,420.5a1.826,1.826,0,0,1,1.829-1.822l7.3.014a1.825,1.825,0,1,1-.007,3.65l-7.3-.014a1.825,1.825,0,0,1-1.821-1.828" transform="translate(-436.694 -418.477)"/><path class="c" d="M624.477,420.459a1.825,1.825,0,0,1,1.828-1.822l3.652.007a1.825,1.825,0,0,1-.007,3.65l-3.652-.007a1.824,1.824,0,0,1-1.821-1.828" transform="translate(-427.155 -418.459)"/><path class="c" d="M606.369,420.425a1.825,1.825,0,1,1,1.822,1.829,1.826,1.826,0,0,1-1.822-1.829" transform="translate(-420 -418.446)"/><path class="c" d="M594.3,420.4a1.826,1.826,0,1,1,1.822,1.828A1.827,1.827,0,0,1,594.3,420.4" transform="translate(-415.23 -418.437)"/><path class="c" d="M576.193,420.367a1.826,1.826,0,0,1,1.829-1.822l3.65.007a1.825,1.825,0,1,1-.007,3.65l-3.65-.007a1.824,1.824,0,0,1-1.822-1.828" transform="translate(-408.076 -418.423)"/><path class="c" d="M564.123,420.345a1.825,1.825,0,1,1,1.821,1.829,1.825,1.825,0,0,1-1.821-1.829" transform="translate(-403.307 -418.414)"/><path class="c" d="M546.015,420.311a1.827,1.827,0,0,1,1.83-1.822l3.65.007a1.825,1.825,0,1,1-.007,3.65l-3.65-.007a1.827,1.827,0,0,1-1.823-1.829" transform="translate(-396.152 -418.401)"/></g></g><g transform="translate(717.746 -406.343)"><g transform="translate(506.254 406.343)"><path class="c" d="M509.9,408.171a1.825,1.825,0,1,1-1.822-1.828,1.825,1.825,0,0,1,1.822,1.828" transform="translate(-506.254 -406.343)"/><path class="c" d="M534.047,408.217a1.826,1.826,0,1,1-1.822-1.829,1.825,1.825,0,0,1,1.822,1.829" transform="translate(-515.793 -406.361)"/><path class="c" d="M561.839,408.27a1.826,1.826,0,0,1-1.829,1.822l-3.65-.007a1.825,1.825,0,0,1,.007-3.65l3.65.007a1.825,1.825,0,0,1,1.822,1.828" transform="translate(-525.332 -406.379)"/><path class="c" d="M594.4,408.331a1.826,1.826,0,1,1-1.822-1.829,1.826,1.826,0,0,1,1.822,1.829" transform="translate(-539.641 -406.406)"/><path class="c" d="M610.122,408.361a1.827,1.827,0,0,1-1.83,1.822l-3.65-.007a1.825,1.825,0,1,1,.007-3.65l3.65.007a1.826,1.826,0,0,1,1.823,1.829" transform="translate(-544.411 -406.415)"/><path class="c" d="M631.879,408.4a1.826,1.826,0,0,1-1.829,1.822l-7.3-.014a1.825,1.825,0,0,1,.007-3.65l7.3.014a1.825,1.825,0,0,1,1.823,1.829" transform="translate(-551.565 -406.428)"/><path class="c" d="M658.4,408.452a1.825,1.825,0,0,1-1.829,1.822l-3.65-.007a1.825,1.825,0,1,1,.007-3.65l3.65.007a1.825,1.825,0,0,1,1.822,1.829" transform="translate(-563.488 -406.451)"/><path class="c" d="M678.9,408.491a1.825,1.825,0,1,1-1.822-1.829,1.825,1.825,0,0,1,1.822,1.829" transform="translate(-573.028 -406.469)"/><path class="c" d="M690.967,408.514a1.825,1.825,0,1,1-1.821-1.829,1.826,1.826,0,0,1,1.821,1.829" transform="translate(-577.798 -406.478)"/><path class="c" d="M706.689,408.543a1.826,1.826,0,0,1-1.829,1.822l-3.651-.007a1.825,1.825,0,0,1,.007-3.65l3.65.007a1.825,1.825,0,0,1,1.822,1.829" transform="translate(-582.567 -406.487)"/><path class="c" d="M721.144,408.571a1.826,1.826,0,1,1-1.822-1.829,1.826,1.826,0,0,1,1.822,1.829" transform="translate(-589.721 -406.501)"/><path class="c" d="M736.864,408.6a1.825,1.825,0,0,1-1.828,1.822l-3.651-.007a1.825,1.825,0,1,1,.007-3.65l3.651.007a1.824,1.824,0,0,1,1.821,1.829" transform="translate(-594.49 -406.509)"/><path class="c" d="M775.361,420.743a1.825,1.825,0,1,1,1.821,1.828,1.826,1.826,0,0,1-1.821-1.828" transform="translate(-486.774 -418.571)"/><path class="c" d="M751.219,420.7a1.825,1.825,0,1,1,1.822,1.828,1.826,1.826,0,0,1-1.822-1.828" transform="translate(-477.234 -418.554)"/><path class="c" d="M721.041,420.641a1.827,1.827,0,0,1,1.83-1.822l3.65.007a1.825,1.825,0,0,1-.007,3.65l-3.651-.007a1.826,1.826,0,0,1-1.822-1.829" transform="translate(-465.31 -418.531)"/><path class="c" d="M690.865,420.584a1.825,1.825,0,1,1,1.823,1.829,1.826,1.826,0,0,1-1.823-1.829" transform="translate(-453.387 -418.508)"/><path class="c" d="M672.758,420.55a1.826,1.826,0,0,1,1.829-1.822l3.651.007a1.825,1.825,0,1,1-.007,3.65l-3.651-.007a1.826,1.826,0,0,1-1.822-1.829" transform="translate(-446.232 -418.495)"/><path class="c" d="M648.618,420.5a1.826,1.826,0,0,1,1.829-1.822l7.3.014a1.825,1.825,0,1,1-.007,3.65l-7.3-.014a1.825,1.825,0,0,1-1.821-1.828" transform="translate(-436.694 -418.477)"/><path class="c" d="M624.477,420.459a1.825,1.825,0,0,1,1.828-1.822l3.652.007a1.825,1.825,0,0,1-.007,3.65l-3.652-.007a1.824,1.824,0,0,1-1.821-1.828" transform="translate(-427.155 -418.459)"/><path class="c" d="M606.369,420.425a1.825,1.825,0,1,1,1.822,1.829,1.826,1.826,0,0,1-1.822-1.829" transform="translate(-420 -418.446)"/><path class="c" d="M594.3,420.4a1.826,1.826,0,1,1,1.822,1.828A1.827,1.827,0,0,1,594.3,420.4" transform="translate(-415.23 -418.437)"/><path class="c" d="M576.193,420.367a1.826,1.826,0,0,1,1.829-1.822l3.65.007a1.825,1.825,0,1,1-.007,3.65l-3.65-.007a1.824,1.824,0,0,1-1.822-1.828" transform="translate(-408.076 -418.423)"/><path class="c" d="M564.123,420.345a1.825,1.825,0,1,1,1.821,1.829,1.825,1.825,0,0,1-1.821-1.829" transform="translate(-403.307 -418.414)"/><path class="c" d="M546.015,420.311a1.827,1.827,0,0,1,1.83-1.822l3.65.007a1.825,1.825,0,1,1-.007,3.65l-3.65-.007a1.827,1.827,0,0,1-1.823-1.829" transform="translate(-396.152 -418.401)"/></g></g></g></svg>