<svg xmlns="http://www.w3.org/2000/svg" xmlns:xlink="http://www.w3.org/1999/xlink" width="370.562" height="10.183" viewBox="0 0 370.562 10.183"><defs><style>.a{fill:url(#a);}.b{fill:url(#b);}.c{fill:url(#c);}.d{fill:url(#d);}.e{fill:url(#e);}.f{fill:url(#f);}.g{fill:url(#g);}.h{fill:url(#h);}.i{fill:url(#i);}.j{fill:url(#j);}.k{fill:url(#k);}.l{fill:url(#l);}</style><linearGradient id="a" x1="1.084" y1="-2.879" x2="19.829" y2="-21.624" gradientUnits="objectBoundingBox"><stop offset="0.15" stop-color="#0064b3"/><stop offset="0.4" stop-color="#009383"/><stop offset="0.75" stop-color="#73aa17"/></linearGradient><linearGradient id="b" x1="-0.917" y1="-0.886" x2="17.826" y2="-19.631" xlink:href="#a"/><linearGradient id="c" x1="-1.333" y1="1.354" x2="8.039" y2="-17.354" xlink:href="#a"/><linearGradient id="d" x1="-5.916" y1="4.096" x2="12.826" y2="-14.652" xlink:href="#a"/><linearGradient id="e" x1="-3.333" y1="5.331" x2="6.038" y2="-13.377" xlink:href="#a"/><linearGradient id="f" x1="-2.639" y1="7.059" x2="3.609" y2="-11.615" xlink:href="#a"/><linearGradient id="g" x1="-5.333" y1="9.308" x2="4.039" y2="-9.4" xlink:href="#a"/><linearGradient id="h" x1="-12.917" y1="11.071" x2="5.828" y2="-7.677" xlink:href="#a"/><linearGradient id="i" x1="-13.92" y1="12.065" x2="4.828" y2="-6.68" xlink:href="#a"/><linearGradient id="j" x1="-7.334" y1="13.286" x2="2.039" y2="-5.423" xlink:href="#a"/><linearGradient id="k" x1="-16.41" y1="14.559" x2="2.327" y2="-4.19" xlink:href="#a"/><linearGradient id="l" x1="-8.582" y1="15.77" x2="0.789" y2="-2.937" xlink:href="#a"/></defs><g transform="translate(-744 -2199)"><path class="a" d="M515.755,411.1a4.751,4.751,0,1,1-4.742-4.759,4.751,4.751,0,0,1,4.742,4.759" transform="translate(237.746 1792.657)"/><path class="b" d="M539.9,411.149a4.751,4.751,0,1,1-4.742-4.761,4.75,4.75,0,0,1,4.742,4.761" transform="translate(251.611 1792.683)"/><path class="c" d="M573.54,411.212a4.753,4.753,0,0,1-4.761,4.742l-9.5-.019a4.75,4.75,0,0,1,.019-9.5l9.5.019a4.75,4.75,0,0,1,4.742,4.759" transform="translate(265.476 1792.709)"/><path class="d" d="M600.253,411.262a4.751,4.751,0,1,1-4.742-4.759,4.752,4.752,0,0,1,4.742,4.759" transform="translate(286.273 1792.749)"/><path class="e" d="M621.825,411.3a4.754,4.754,0,0,1-4.762,4.742l-9.5-.019a4.751,4.751,0,1,1,.019-9.5l9.5.019a4.752,4.752,0,0,1,4.743,4.759" transform="translate(293.206 1792.762)"/><path class="f" d="M649.432,411.354a4.753,4.753,0,0,1-4.761,4.742l-19-.036a4.751,4.751,0,0,1,.017-9.5l19,.036a4.75,4.75,0,0,1,4.743,4.759" transform="translate(303.604 1792.781)"/><path class="g" d="M670.107,411.394a4.751,4.751,0,0,1-4.759,4.742l-9.5-.019a4.75,4.75,0,1,1,.017-9.5l9.5.019a4.75,4.75,0,0,1,4.742,4.759" transform="translate(320.935 1792.814)"/><path class="h" d="M684.747,411.423a4.751,4.751,0,1,1-4.742-4.761,4.751,4.751,0,0,1,4.742,4.761" transform="translate(334.8 1792.84)"/><path class="i" d="M696.816,411.444a4.75,4.75,0,1,1-4.74-4.759,4.753,4.753,0,0,1,4.74,4.759" transform="translate(341.733 1792.853)"/><path class="j" d="M718.39,411.485a4.752,4.752,0,0,1-4.761,4.742l-9.5-.019a4.75,4.75,0,0,1,.019-9.5l9.5.019a4.751,4.751,0,0,1,4.743,4.759" transform="translate(348.665 1792.866)"/><path class="k" d="M727,411.5a4.753,4.753,0,1,1-4.743-4.759A4.753,4.753,0,0,1,727,411.5" transform="translate(359.063 1792.886)"/><path class="l" d="M748.567,411.542a4.75,4.75,0,0,1-4.759,4.742l-9.5-.019a4.751,4.751,0,1,1,.019-9.5l9.5.019a4.748,4.748,0,0,1,4.74,4.759" transform="translate(365.995 1792.899)"/></g></svg>